<svg id="logo-ass-contraste" xmlns="http://www.w3.org/2000/svg" width="244.88" height="109.338" viewBox="0 0 244.88 109.338">
  <path id="Caminho_37" data-name="Caminho 37" d="M262.122,108.311l-10.06,21.869h6.893l6.27-14.736,6.258,14.736H278.5l-10.056-21.869h-6.314Zm29.981,16.8a5.566,5.566,0,0,1-5.635-5.8v-.052a5.572,5.572,0,0,1,5.635-5.745,6.5,6.5,0,0,1,5.171,2.55l4.925-3.509c-2.091-2.666-5.2-4.523-10.028-4.523-7.155,0-12.465,4.961-12.465,11.283v.064c0,6.485,5.441,11.227,12.195,11.227,5.238,0,8.238-2.077,10.473-4.905l-4.937-3.223a6.616,6.616,0,0,1-5.33,2.63Zm-53.645-16.654H231.91V130.18h18V124.9H238.458Zm143.212,0-6.75,18.086-6.484-18.141h-2.195l-6.476,18.141L353,108.462h-2.9l8.445,21.869h2.226l6.516-17.608,6.484,17.608h2.262l8.437-21.869Zm-43.395-.151L327.5,130.18h2.734l9.25-19.017,9.183,19.017h2.877l-10.774-21.869h-2.5Zm-28.223.151h-2.671V130.18h15.973v-2.264h-13.3V108.462Z" transform="translate(-139.881 -65.065)" fill="#fff"/>
  <path id="Caminho_38" data-name="Caminho 38" d="M102.429,89.247,51.15,65.126h23.8a1.283,1.283,0,0,0,0-2.566H46.689V1.305a1.282,1.282,0,1,0-2.564,0V60.746L25.422,42a1.283,1.283,0,0,0-1.81,1.818L43.6,63.849.385,107.17a1.282,1.282,0,0,0,0,1.818,1.264,1.264,0,0,0,.9.37,1.29,1.29,0,0,0,.909-.37L41.141,69.944,31.7,90.119a1.289,1.289,0,0,0,.619,1.711,1.26,1.26,0,0,0,.544.123,1.277,1.277,0,0,0,1.159-.74l12-25.649,55.32,26.019a1.283,1.283,0,1,0,1.087-2.323Z" transform="translate(-0.008 -0.02)" fill="#3cd2e6"/>
  <path id="Caminho_47" data-name="Caminho 47" d="M4.18.08a3.864,3.864,0,0,1-1.9-.465A3.421,3.421,0,0,1,.96-1.665,3.548,3.548,0,0,1,.48-3.5,3.548,3.548,0,0,1,.96-5.335a3.412,3.412,0,0,1,1.33-1.28,3.893,3.893,0,0,1,1.9-.465,3.966,3.966,0,0,1,1.5.275,3.07,3.07,0,0,1,1.16.815l-.65.63a2.608,2.608,0,0,0-1.97-.83,2.854,2.854,0,0,0-1.41.35,2.538,2.538,0,0,0-.985.965A2.7,2.7,0,0,0,1.48-3.5a2.7,2.7,0,0,0,.355,1.375,2.538,2.538,0,0,0,.985.965,2.854,2.854,0,0,0,1.41.35A2.613,2.613,0,0,0,6.2-1.65l.65.63A3.111,3.111,0,0,1,5.685-.2,3.941,3.941,0,0,1,4.18.08Zm7.31,0A3.913,3.913,0,0,1,9.58-.385,3.437,3.437,0,0,1,8.245-1.67,3.527,3.527,0,0,1,7.76-3.5a3.527,3.527,0,0,1,.485-1.83A3.437,3.437,0,0,1,9.58-6.615a3.913,3.913,0,0,1,1.91-.465,3.893,3.893,0,0,1,1.9.465,3.412,3.412,0,0,1,1.33,1.28A3.548,3.548,0,0,1,15.2-3.5a3.548,3.548,0,0,1-.48,1.835,3.412,3.412,0,0,1-1.33,1.28A3.893,3.893,0,0,1,11.49.08Zm0-.89a2.75,2.75,0,0,0,1.385-.35,2.568,2.568,0,0,0,.97-.965A2.7,2.7,0,0,0,14.2-3.5a2.7,2.7,0,0,0-.355-1.375,2.568,2.568,0,0,0-.97-.965,2.75,2.75,0,0,0-1.385-.35,2.806,2.806,0,0,0-1.4.35,2.548,2.548,0,0,0-.98.965A2.7,2.7,0,0,0,8.76-3.5a2.7,2.7,0,0,0,.355,1.375,2.548,2.548,0,0,0,.98.965A2.806,2.806,0,0,0,11.49-.81ZM22.95-7V0h-.82l-4.2-5.22V0h-1V-7h.82l4.2,5.22V-7ZM27.29.08a4.791,4.791,0,0,1-1.525-.245A3.132,3.132,0,0,1,24.61-.8l.37-.78A3.064,3.064,0,0,0,26-1,3.766,3.766,0,0,0,27.29-.77a2.314,2.314,0,0,0,1.3-.295.909.909,0,0,0,.43-.785.773.773,0,0,0-.235-.585,1.572,1.572,0,0,0-.58-.345q-.345-.12-.975-.27a10.048,10.048,0,0,1-1.275-.38,2.108,2.108,0,0,1-.83-.585A1.562,1.562,0,0,1,24.78-5.08a1.8,1.8,0,0,1,.3-1.01,2.026,2.026,0,0,1,.9-.72,3.63,3.63,0,0,1,1.49-.27,4.715,4.715,0,0,1,1.22.16,3.246,3.246,0,0,1,1.03.46l-.33.8a3.62,3.62,0,0,0-.94-.425,3.508,3.508,0,0,0-.98-.145,2.159,2.159,0,0,0-1.275.31.95.95,0,0,0-.425.8.765.765,0,0,0,.24.585,1.665,1.665,0,0,0,.6.35,9.3,9.3,0,0,0,.965.265,9.775,9.775,0,0,1,1.27.38,2.138,2.138,0,0,1,.825.58A1.528,1.528,0,0,1,30-1.91a1.787,1.787,0,0,1-.3,1.005,2.009,2.009,0,0,1-.91.72A3.764,3.764,0,0,1,27.29.08Zm7.27,0a2.9,2.9,0,0,1-2.18-.8,3.161,3.161,0,0,1-.78-2.3V-7h1v3.94q0,2.25,1.97,2.25a1.9,1.9,0,0,0,1.47-.555,2.436,2.436,0,0,0,.51-1.7V-7h.97v3.98a3.158,3.158,0,0,1-.78,2.305A2.915,2.915,0,0,1,34.56.08ZM39.77-7h1V-.87h3.79V0H39.77Zm6.88.87h-2.4V-7h5.79v.87h-2.4V0h-.99ZM54.39.08a3.913,3.913,0,0,1-1.91-.465A3.437,3.437,0,0,1,51.145-1.67,3.527,3.527,0,0,1,50.66-3.5a3.527,3.527,0,0,1,.485-1.83A3.437,3.437,0,0,1,52.48-6.615a3.914,3.914,0,0,1,1.91-.465,3.893,3.893,0,0,1,1.9.465,3.412,3.412,0,0,1,1.33,1.28A3.547,3.547,0,0,1,58.1-3.5a3.547,3.547,0,0,1-.48,1.835,3.412,3.412,0,0,1-1.33,1.28A3.893,3.893,0,0,1,54.39.08Zm0-.89a2.75,2.75,0,0,0,1.385-.35,2.568,2.568,0,0,0,.97-.965A2.7,2.7,0,0,0,57.1-3.5a2.7,2.7,0,0,0-.355-1.375,2.568,2.568,0,0,0-.97-.965,2.75,2.75,0,0,0-1.385-.35,2.806,2.806,0,0,0-1.4.35,2.548,2.548,0,0,0-.98.965A2.7,2.7,0,0,0,51.66-3.5a2.7,2.7,0,0,0,.355,1.375,2.548,2.548,0,0,0,.98.965A2.806,2.806,0,0,0,54.39-.81ZM64.51,0,63-2.15q-.28.02-.44.02H60.83V0h-1V-7h2.73a3.243,3.243,0,0,1,2.14.65,2.2,2.2,0,0,1,.78,1.79,2.341,2.341,0,0,1-.4,1.38,2.26,2.26,0,0,1-1.14.83L65.6,0ZM62.53-2.98a2.237,2.237,0,0,0,1.45-.41,1.427,1.427,0,0,0,.5-1.17,1.412,1.412,0,0,0-.5-1.165,2.257,2.257,0,0,0-1.45-.4h-1.7v3.15ZM67.3-7h1V0h-1Zm7.76,5.25H71.34L70.57,0H69.54l3.17-7h.99l3.18,7H75.83Zm-.35-.8L73.2-5.98,71.69-2.55ZM2.44,8.87H.04V8H5.83v.87H3.43V15H2.44ZM11.8,15l-1.51-2.15q-.28.02-.44.02H8.12V15h-1V8H9.85a3.243,3.243,0,0,1,2.14.65,2.2,2.2,0,0,1,.78,1.79,2.341,2.341,0,0,1-.4,1.38,2.26,2.26,0,0,1-1.14.83L12.89,15ZM9.82,12.02a2.237,2.237,0,0,0,1.45-.41,1.427,1.427,0,0,0,.5-1.17,1.412,1.412,0,0,0-.5-1.165,2.257,2.257,0,0,0-1.45-.4H8.12v3.15ZM14.59,8h1v7h-1Zm8.01,3.37a1.793,1.793,0,0,1,.96.615,1.764,1.764,0,0,1,.35,1.125,1.618,1.618,0,0,1-.685,1.4A3.409,3.409,0,0,1,21.23,15H17.89V8h3.14a3.1,3.1,0,0,1,1.855.48,1.557,1.557,0,0,1,.655,1.33,1.729,1.729,0,0,1-.255.95A1.661,1.661,0,0,1,22.6,11.37ZM18.89,8.81v2.24h2.05a2.082,2.082,0,0,0,1.185-.285.949.949,0,0,0,.415-.835.949.949,0,0,0-.415-.835A2.082,2.082,0,0,0,20.94,8.81Zm2.3,5.38a2.368,2.368,0,0,0,1.28-.28.974.974,0,0,0,.43-.88q0-1.17-1.71-1.17h-2.3v2.33Zm7.37.89a2.9,2.9,0,0,1-2.18-.8,3.161,3.161,0,0,1-.78-2.3V8h1v3.94q0,2.25,1.97,2.25a1.9,1.9,0,0,0,1.47-.555,2.437,2.437,0,0,0,.51-1.7V8h.97v3.98a3.158,3.158,0,0,1-.78,2.305A2.915,2.915,0,0,1,28.56,15.08Zm6.47-6.21h-2.4V8h5.79v.87h-2.4V15h-.99Zm8.79,4.38H40.1L39.33,15H38.3l3.17-7h.99l3.18,7H44.59Zm-.35-.8L41.96,9.02l-1.51,3.43Zm-.89-6.32H43.8l-1.68,1.3h-.9ZM51.56,15l-1.51-2.15q-.28.02-.44.02H47.88V15h-1V8h2.73a3.243,3.243,0,0,1,2.14.65,2.2,2.2,0,0,1,.78,1.79,2.341,2.341,0,0,1-.4,1.38,2.26,2.26,0,0,1-1.14.83L52.65,15Zm-1.98-2.98a2.237,2.237,0,0,0,1.45-.41,1.427,1.427,0,0,0,.5-1.17,1.412,1.412,0,0,0-.5-1.165,2.257,2.257,0,0,0-1.45-.4h-1.7v3.15ZM54.35,8h1v7h-1Zm7.76,5.25H58.39L57.62,15H56.59l3.17-7h.99l3.18,7H62.88Zm-.35-.8L60.25,9.02l-1.51,3.43Z" transform="translate(168 87)" fill="#fff"/>
</svg>
